<?xml version="1.0"?>
<svg xmlns="http://www.w3.org/2000/svg" viewBox="0 0 64 64" width="512" height="512"><g id="Layer_2" data-name="Layer 2"><path d="M23,45a1,1,0,0,0-1-1H18a1,1,0,0,0-1,1v4a1,1,0,0,0,1,1h4a1,1,0,0,0,1-1Zm-2,3H19V46h2Z"/><path d="M22,52H18a1,1,0,0,0-1,1v4a1,1,0,0,0,1,1h4a1,1,0,0,0,1-1V53A1,1,0,0,0,22,52Zm-1,4H19V54h2Z"/><path d="M46,52H42a1,1,0,0,0-1,1v4a1,1,0,0,0,1,1h4a1,1,0,0,0,1-1V53A1,1,0,0,0,46,52Zm-1,4H43V54h2Z"/><path d="M30,44H26a1,1,0,0,0-1,1v4a1,1,0,0,0,1,1h4a1,1,0,0,0,1-1V45A1,1,0,0,0,30,44Zm-1,4H27V46h2Z"/><path d="M38,44H34a1,1,0,0,0-1,1v4a1,1,0,0,0,1,1h4a1,1,0,0,0,1-1V45A1,1,0,0,0,38,44Zm-1,4H35V46h2Z"/><path d="M47,45a1,1,0,0,0-1-1H42a1,1,0,0,0-1,1v4a1,1,0,0,0,1,1h4a1,1,0,0,0,1-1Zm-2,3H43V46h2Z"/><path d="M23,37a1,1,0,0,0-1-1H18a1,1,0,0,0-1,1v4a1,1,0,0,0,1,1h4a1,1,0,0,0,1-1Zm-2,3H19V38h2Z"/><path d="M31,37a1,1,0,0,0-1-1H26a1,1,0,0,0-1,1v4a1,1,0,0,0,1,1h4a1,1,0,0,0,1-1Zm-2,3H27V38h2Z"/><path d="M39,37a1,1,0,0,0-1-1H34a1,1,0,0,0-1,1v4a1,1,0,0,0,1,1h4a1,1,0,0,0,1-1Zm-2,3H35V38h2Z"/><path d="M47,37a1,1,0,0,0-1-1H42a1,1,0,0,0-1,1v4a1,1,0,0,0,1,1h4a1,1,0,0,0,1-1Zm-2,3H43V38h2Z"/><path d="M23,29a1,1,0,0,0-1-1H18a1,1,0,0,0-1,1v4a1,1,0,0,0,1,1h4a1,1,0,0,0,1-1Zm-2,3H19V30h2Z"/><path d="M31,29a1,1,0,0,0-1-1H26a1,1,0,0,0-1,1v4a1,1,0,0,0,1,1h4a1,1,0,0,0,1-1Zm-2,3H27V30h2Z"/><path d="M39,29a1,1,0,0,0-1-1H34a1,1,0,0,0-1,1v4a1,1,0,0,0,1,1h4a1,1,0,0,0,1-1Zm-2,3H35V30h2Z"/><path d="M47,29a1,1,0,0,0-1-1H42a1,1,0,0,0-1,1v4a1,1,0,0,0,1,1h4a1,1,0,0,0,1-1Zm-2,3H43V30h2Z"/><path d="M23,21a1,1,0,0,0-1-1H18a1,1,0,0,0-1,1v4a1,1,0,0,0,1,1h4a1,1,0,0,0,1-1Zm-2,3H19V22h2Z"/><path d="M31,21a1,1,0,0,0-1-1H26a1,1,0,0,0-1,1v4a1,1,0,0,0,1,1h4a1,1,0,0,0,1-1Zm-2,3H27V22h2Z"/><path d="M39,21a1,1,0,0,0-1-1H34a1,1,0,0,0-1,1v4a1,1,0,0,0,1,1h4a1,1,0,0,0,1-1Zm-2,3H35V22h2Z"/><path d="M47,21a1,1,0,0,0-1-1H42a1,1,0,0,0-1,1v4a1,1,0,0,0,1,1h4a1,1,0,0,0,1-1Zm-2,3H43V22h2Z"/><path d="M23,13a1,1,0,0,0-1-1H18a1,1,0,0,0-1,1v4a1,1,0,0,0,1,1h4a1,1,0,0,0,1-1Zm-2,3H19V14h2Z"/><path d="M31,13a1,1,0,0,0-1-1H26a1,1,0,0,0-1,1v4a1,1,0,0,0,1,1h4a1,1,0,0,0,1-1Zm-2,3H27V14h2Z"/><path d="M39,13a1,1,0,0,0-1-1H34a1,1,0,0,0-1,1v4a1,1,0,0,0,1,1h4a1,1,0,0,0,1-1Zm-2,3H35V14h2Z"/><path d="M47,13a1,1,0,0,0-1-1H42a1,1,0,0,0-1,1v4a1,1,0,0,0,1,1h4a1,1,0,0,0,1-1Zm-2,3H43V14h2Z"/><path d="M64,47a4.984,4.984,0,0,0-3.034-4.584,5,5,0,0,0-9.932,0,4.953,4.953,0,0,0-2.029,7.557c0,.01-.005.017-.005.027V62H37V53a1,1,0,0,0-1-1H28a1,1,0,0,0-1,1v9H15V50c0-.01-.005-.017-.005-.027a4.906,4.906,0,0,0,0-5.95A.189.189,0,0,0,15,44V11a1,1,0,0,1,1-1H38a1,1,0,0,0,0-2H19V6H45V8H42a1,1,0,0,0,0,2h6a1,1,0,0,1,1,1V39a1,1,0,0,0,2,0V11a3,3,0,0,0-3-3H47V6h3a3,3,0,0,0,0-6H14a3,3,0,0,0,0,6h3V8H16a3,3,0,0,0-3,3V42.433l-.034-.017a5,5,0,0,0-9.932,0A4.969,4.969,0,0,0,3,51.555V54a3,3,0,0,0,3,3H7v6a1,1,0,0,0,2,0V53.889a5.016,5.016,0,0,0,3.078-2.026A4.967,4.967,0,0,0,13,51.555V63a1,1,0,0,0,1,1H50a1,1,0,0,0,1-1V51.555a4.967,4.967,0,0,0,.922.308A5.016,5.016,0,0,0,55,53.889V63a1,1,0,0,0,2,0V57h1a3,3,0,0,0,3-3V51.555A4.978,4.978,0,0,0,64,47ZM13,3a1,1,0,0,1,1-1H50a1,1,0,0,1,0,2H14A1,1,0,0,1,13,3ZM6,55a1,1,0,0,1-1-1V52.972a4.969,4.969,0,0,0,2,.917V55Zm5.353-5.041a1,1,0,0,0-.753.5,2.966,2.966,0,0,1-5.2,0,1,1,0,0,0-.753-.5,2.98,2.98,0,0,1-.386-5.853,1,1,0,0,0,.752-1A.369.369,0,0,0,5,43H5a3,3,0,0,1,6-.069c-.005.037-.015.138-.016.174a1,1,0,0,0,.752,1,2.98,2.98,0,0,1-.386,5.853ZM29,62V54h6v8Zm29-7H57V53.889a4.969,4.969,0,0,0,2-.917V54A1,1,0,0,1,58,55Zm1.353-5.041a1,1,0,0,0-.753.5,2.966,2.966,0,0,1-5.2,0,1,1,0,0,0-.753-.5,2.98,2.98,0,0,1-.386-5.853,1,1,0,0,0,.752-1A.369.369,0,0,0,53,43h0a3,3,0,0,1,6-.069c-.005.037-.015.138-.016.174a1,1,0,0,0,.752,1,2.98,2.98,0,0,1-.386,5.853Z"/></g></svg>
