<svg id="Layer_1" enable-background="new 0 0 512 512" height="512" viewBox="0 0 512 512" width="512" xmlns="http://www.w3.org/2000/svg"><g><g><path d="m489.5 372.5h-50.5v-173.423c0-4.142-3.357-7.5-7.5-7.5s-7.5 3.358-7.5 7.5v173.423h-15v-28.5c0-5.238-4.262-9.5-9.5-9.5h-86c-5.238 0-9.5 4.262-9.5 9.5v28.5h-15v-229h135v15.269c0 4.142 3.357 7.5 7.5 7.5s7.5-3.358 7.5-7.5v-22.769c0-4.142-3.357-7.5-7.5-7.5h-10.5v-19h10.5c4.143 0 7.5-3.358 7.5-7.5s-3.357-7.5-7.5-7.5h-150c-4.143 0-7.5 3.358-7.5 7.5s3.357 7.5 7.5 7.5h10.5v19h-10.5c-4.143 0-7.5 3.358-7.5 7.5v236.5h-36v-236.5c0-4.142-3.357-7.5-7.5-7.5h-10.5v-19h10.5c4.143 0 7.5-3.358 7.5-7.5s-3.357-7.5-7.5-7.5h-150c-4.143 0-7.5 3.358-7.5 7.5s3.357 7.5 7.5 7.5h10.5v19h-10.5c-4.143 0-7.5 3.358-7.5 7.5v147.692c0 4.142 3.357 7.5 7.5 7.5s7.5-3.358 7.5-7.5v-140.192h135v229h-15v-28.5c0-5.238-4.262-9.5-9.5-9.5h-86c-5.238 0-9.5 4.262-9.5 9.5v28.5h-15v-53.577c0-4.142-3.357-7.5-7.5-7.5s-7.5 3.358-7.5 7.5v53.577h-50.5c-12.406 0-22.5 10.093-22.5 22.5s10.094 22.5 22.5 22.5h379.73c4.143 0 7.5-3.358 7.5-7.5s-3.357-7.5-7.5-7.5h-379.73c-4.136 0-7.5-3.364-7.5-7.5s3.364-7.5 7.5-7.5h467c4.136 0 7.5 3.364 7.5 7.5s-3.364 7.5-7.5 7.5h-52.397c-4.143 0-7.5 3.358-7.5 7.5s3.357 7.5 7.5 7.5h52.397c12.406 0 22.5-10.093 22.5-22.5s-10.094-22.5-22.5-22.5zm-144.5-244v-19h23v19zm61 0h-23v-19h23zm-99-19h23v19h-23zm-102 19h-23v-19h23zm-38 0h-23v-19h23zm-61-19h23v19h-23zm12 263v-23h75v23zm201 0v-23h75v23z"/><path d="m112.5 203.5h26c5.238 0 9.5-4.262 9.5-9.5v-26c0-5.238-4.262-9.5-9.5-9.5h-26c-5.238 0-9.5 4.262-9.5 9.5v26c0 5.238 4.262 9.5 9.5 9.5zm5.5-30h15v15h-15z"/><path d="m172.5 203.5h26c5.238 0 9.5-4.262 9.5-9.5v-26c0-5.238-4.262-9.5-9.5-9.5h-26c-5.238 0-9.5 4.262-9.5 9.5v26c0 5.238 4.262 9.5 9.5 9.5zm5.5-30h15v15h-15z"/><path d="m103 254c0 5.238 4.262 9.5 9.5 9.5h26c5.238 0 9.5-4.262 9.5-9.5v-26c0-5.238-4.262-9.5-9.5-9.5h-26c-5.238 0-9.5 4.262-9.5 9.5zm15-20.5h15v15h-15z"/><path d="m163 254c0 5.238 4.262 9.5 9.5 9.5h26c5.238 0 9.5-4.262 9.5-9.5v-26c0-5.238-4.262-9.5-9.5-9.5h-26c-5.238 0-9.5 4.262-9.5 9.5zm15-20.5h15v15h-15z"/><path d="m103 314c0 5.238 4.262 9.5 9.5 9.5h26c5.238 0 9.5-4.262 9.5-9.5v-26c0-5.238-4.262-9.5-9.5-9.5h-26c-5.238 0-9.5 4.262-9.5 9.5zm15-20.5h15v15h-15z"/><path d="m163 314c0 5.238 4.262 9.5 9.5 9.5h26c5.238 0 9.5-4.262 9.5-9.5v-26c0-5.238-4.262-9.5-9.5-9.5h-26c-5.238 0-9.5 4.262-9.5 9.5zm15-20.5h15v15h-15z"/><path d="m349 168c0-5.238-4.262-9.5-9.5-9.5h-26c-5.238 0-9.5 4.262-9.5 9.5v26c0 5.238 4.262 9.5 9.5 9.5h26c5.238 0 9.5-4.262 9.5-9.5zm-15 20.5h-15v-15h15z"/><path d="m409 168c0-5.238-4.262-9.5-9.5-9.5h-26c-5.238 0-9.5 4.262-9.5 9.5v26c0 5.238 4.262 9.5 9.5 9.5h26c5.238 0 9.5-4.262 9.5-9.5zm-15 20.5h-15v-15h15z"/><path d="m349 228c0-5.238-4.262-9.5-9.5-9.5h-26c-5.238 0-9.5 4.262-9.5 9.5v26c0 5.238 4.262 9.5 9.5 9.5h26c5.238 0 9.5-4.262 9.5-9.5zm-15 20.5h-15v-15h15z"/><path d="m409 228c0-5.238-4.262-9.5-9.5-9.5h-26c-5.238 0-9.5 4.262-9.5 9.5v26c0 5.238 4.262 9.5 9.5 9.5h26c5.238 0 9.5-4.262 9.5-9.5zm-15 20.5h-15v-15h15z"/><path d="m339.5 278.5h-26c-5.238 0-9.5 4.262-9.5 9.5v26c0 5.238 4.262 9.5 9.5 9.5h26c5.238 0 9.5-4.262 9.5-9.5v-26c0-5.238-4.262-9.5-9.5-9.5zm-5.5 30h-15v-15h15z"/><path d="m399.5 278.5h-26c-5.238 0-9.5 4.262-9.5 9.5v26c0 5.238 4.262 9.5 9.5 9.5h26c5.238 0 9.5-4.262 9.5-9.5v-26c0-5.238-4.262-9.5-9.5-9.5zm-5.5 30h-15v-15h15z"/></g></g></svg>