<?xml version="1.0" encoding="iso-8859-1"?>
<!-- Generator: Adobe Illustrator 19.0.0, SVG Export Plug-In . SVG Version: 6.00 Build 0)  -->
<svg version="1.1" id="Layer_1" xmlns="http://www.w3.org/2000/svg" xmlns:xlink="http://www.w3.org/1999/xlink" x="0px" y="0px"
	 viewBox="0 0 334.334 334.334" style="enable-background:new 0 0 334.334 334.334;" xml:space="preserve">
<g>
	<g>
		<g>
			<path d="M92.805,306.132h25.429c4.143,0,7.5-3.357,7.5-7.5c0-6.707,0-56.835,0-63.571c0-4.143-3.358-7.5-7.5-7.5H92.805
				c-4.143,0-7.5,3.357-7.5,7.5c0,6.709,0,56.835,0,63.571C85.305,302.775,88.662,306.132,92.805,306.132z M100.305,242.561h10.429
				v16.786h-10.429V242.561z M100.305,274.347h10.429v16.785h-10.429V274.347z"/>
			<path d="M216.1,306.132h25.429c4.143,0,7.5-3.357,7.5-7.5c0-6.707,0-56.835,0-63.571c0-4.143-3.357-7.5-7.5-7.5H216.1
				c-4.143,0-7.5,3.357-7.5,7.5c0,6.709,0,56.835,0,63.571C208.6,302.775,211.957,306.132,216.1,306.132z M223.601,242.561h10.429
				v16.786h-10.429V242.561z M223.6,274.347h10.429v16.785H223.6V274.347z"/>
			<path d="M92.805,184.22h25.429c4.143,0,7.5-3.357,7.5-7.5c0-6.709,0-56.835,0-63.571c0-4.143-3.357-7.5-7.5-7.5H92.805
				c-4.143,0-7.5,3.357-7.5,7.5c0,6.707,0,56.835,0,63.571C85.305,180.862,88.662,184.22,92.805,184.22z M100.305,120.648h10.429
				v16.785h-10.429V120.648z M100.305,152.434h10.429v16.786h-10.429V152.434z"/>
			<path d="M216.101,184.22h25.429c4.143,0,7.5-3.357,7.5-7.5c0-6.709,0-56.835,0-63.571c0-4.143-3.357-7.5-7.5-7.5h-25.429
				c-4.143,0-7.5,3.357-7.5,7.5c0,6.707,0,56.835,0,63.571C208.601,180.862,211.958,184.22,216.101,184.22z M223.601,120.648h10.429
				v16.785h-10.429V120.648z M223.6,152.434h10.429v16.786H223.6V152.434z"/>
			<path d="M292.986,78.946l-19.675-42.793c-1.224-2.662-3.885-4.367-6.814-4.367h-17.468V7.5c0-4.143-3.357-7.5-7.5-7.5H216.1
				c-4.143,0-7.5,3.357-7.5,7.5v24.286H67.837c-2.93,0-5.591,1.705-6.814,4.367L41.348,78.946
				c-2.282,4.966,1.354,10.633,6.814,10.633h12.175c0,6.105,0,233.123,0,237.255c0,4.143,3.357,7.5,7.5,7.5
				c9.423,0,191.167,0,198.66,0c4.143,0,7.5-3.357,7.5-7.5V204.921v-0.93V89.579h12.175
				C291.638,89.579,295.266,83.906,292.986,78.946z M223.601,15h10.429v16.786h-10.429V15z M188.717,319.334h-43.1v-76.773h43.1
				V319.334z M258.997,319.334h-55.28v-84.273c0-4.143-3.357-7.5-7.5-7.5h-58.1c-4.143,0-7.5,3.357-7.5,7.5v84.273h-55.28V212.421
				c6.605,0,174.71,0,183.66,0V319.334z M145.617,196.491v-75.843h43.1v75.843h0H145.617z M258.997,196.491h-55.28v-83.343
				c0-4.143-3.357-7.5-7.5-7.5h-58.1c-4.143,0-7.5,3.357-7.5,7.5v83.343h-55.28V89.579h183.66V196.491z M59.865,74.579
				l12.778-27.793c2.207,0,183.504,0,189.047,0l12.778,27.793C269.971,74.579,64.356,74.579,59.865,74.579z"/>
		</g>
	</g>
</g>
<g>
</g>
<g>
</g>
<g>
</g>
<g>
</g>
<g>
</g>
<g>
</g>
<g>
</g>
<g>
</g>
<g>
</g>
<g>
</g>
<g>
</g>
<g>
</g>
<g>
</g>
<g>
</g>
<g>
</g>
</svg>
