<svg enable-background="new 0 0 512 512" height="512" viewBox="0 0 512 512" width="512" xmlns="http://www.w3.org/2000/svg"><path d="m489.5 427h-7v-129.5c0-6.341-5.159-11.5-11.5-11.5h-22.5v-147.049l33.592 9.243c1.944.535 3.943.806 5.943.806 10.101-.001 19.012-6.845 21.67-16.645 3.254-11.997-3.809-24.429-15.745-27.713l-152.004-41.823c-3.994-1.098-8.122 1.248-9.221 5.242s1.248 8.122 5.242 9.221l152.005 41.823c3.99 1.098 6.344 5.28 5.248 9.323-.89 3.281-3.849 5.572-7.194 5.572-.656 0-1.317-.09-1.964-.269l-228.082-62.755c-1.303-.358-2.677-.358-3.979 0l-228.081 62.755c-1.904.525-3.899.273-5.619-.708-1.75-.999-3.006-2.63-3.54-4.595-1.096-4.043 1.257-8.226 5.248-9.323l232.026-63.841c1.278-.352 2.63-.353 3.911 0l46.279 12.733c3.992 1.099 8.122-1.249 9.221-5.242 1.099-3.994-1.248-8.122-5.242-9.221l-46.278-12.733c-3.884-1.069-7.989-1.069-11.871 0l-232.026 63.84c-11.936 3.284-18.999 15.716-15.745 27.713 1.584 5.841 5.342 10.705 10.58 13.695 3.429 1.958 7.223 2.956 11.064 2.956 1.992 0 3.998-.269 5.971-.812l33.591-9.242v35.92c0 4.142 3.358 7.5 7.5 7.5s7.5-3.358 7.5-7.5v-40.047l177.5-48.838 177.5 48.838v151.176h-355v-75.846c0-4.142-3.358-7.5-7.5-7.5s-7.5 3.358-7.5 7.5v75.846h-22.5c-6.341 0-11.5 5.159-11.5 11.5v129.5h-7c-12.407 0-22.5 10.093-22.5 22.5s10.093 22.5 22.5 22.5h362.346c4.142 0 7.5-3.358 7.5-7.5s-3.358-7.5-7.5-7.5h-362.346c-4.136 0-7.5-3.364-7.5-7.5s3.364-7.5 7.5-7.5h467c4.136 0 7.5 3.364 7.5 7.5s-3.364 7.5-7.5 7.5h-69.115c-4.142 0-7.5 3.358-7.5 7.5s3.358 7.5 7.5 7.5h69.115c12.407 0 22.5-10.093 22.5-22.5s-10.093-22.5-22.5-22.5zm-445-126h65.5v18h-10.5c-6.341 0-11.5 5.159-11.5 11.5v56c0 6.341 5.159 11.5 11.5 11.5h10.5v29h-65.5zm58.5 82v-49h29v49zm22 44v-29h10.5c6.341 0 11.5-5.159 11.5-11.5v-56c0-6.341-5.159-11.5-11.5-11.5h-10.5v-18h64v18h-10.5c-6.341 0-11.5 5.159-11.5 11.5v56c0 6.341 5.159 11.5 11.5 11.5h10.5v29zm57-44v-49h29v49zm227-9h-149v-13h149zm-149 15h149v13h-149zm149-43h-149v-12h149zm-149 81v-10h149v10zm164 0v-96.5c0-6.341-5.159-11.5-11.5-11.5h-156c-6.341 0-11.5 5.159-11.5 11.5v96.5h-41v-29h10.5c6.341 0 11.5-5.159 11.5-11.5v-56c0-6.341-5.159-11.5-11.5-11.5h-10.5v-18h263.5v126z"/><path d="m393 260c6.341 0 11.5-5.159 11.5-11.5v-96c0-6.341-5.159-11.5-11.5-11.5h-274c-6.341 0-11.5 5.159-11.5 11.5v96c0 6.341 5.159 11.5 11.5 11.5zm-144.5-15h-65v-89h65zm15-89h65v89h-65zm126 89h-46v-89h46zm-267-89h46v89h-46z"/></svg>