<svg id="Layer_1" enable-background="new 0 0 512 512" height="512" viewBox="0 0 512 512" width="512" xmlns="http://www.w3.org/2000/svg"><g><g><path d="m83.23 80h174.77c4.143 0 7.5-3.358 7.5-7.5s-3.357-7.5-7.5-7.5h-174.77c-4.143 0-7.5 3.358-7.5 7.5s3.358 7.5 7.5 7.5z"/><path d="m83.23 107.25h174.77c4.143 0 7.5-3.358 7.5-7.5s-3.357-7.5-7.5-7.5h-174.77c-4.143 0-7.5 3.358-7.5 7.5s3.358 7.5 7.5 7.5z"/><path d="m83.23 134.5h71.385c4.143 0 7.5-3.358 7.5-7.5s-3.357-7.5-7.5-7.5h-71.385c-4.143 0-7.5 3.358-7.5 7.5s3.358 7.5 7.5 7.5z"/><path d="m366.182 183.984c12.391 11.458 16.395 11.458 18.318 11.458s5.928 0 18.318-11.458c7.881-7.289 16.2-16.627 23.425-26.295 14.671-19.633 32.16-50.105 32.16-83.787 0-40.749-33.153-73.902-73.903-73.902-17.408 0-34.315 6.17-47.607 17.375-3.167 2.669-3.57 7.401-.9 10.568 2.669 3.167 7.401 3.569 10.568.9 10.59-8.926 24.064-13.843 37.939-13.843 32.479 0 58.903 26.424 58.903 58.903 0 28.398-14.774 54.867-27.168 72.071-12.988 18.029-26.408 30.113-31.735 33.734-5.327-3.622-18.747-15.706-31.735-33.734-12.394-17.204-27.168-43.673-27.168-72.071 0-6.785 1.143-13.434 3.396-19.762 1.39-3.902-.647-8.191-4.55-9.581-3.898-1.39-8.191.647-9.581 4.55-2.83 7.947-4.265 16.289-4.265 24.793 0 33.681 17.489 64.154 32.16 83.787 7.224 9.667 15.544 19.006 23.425 26.294z"/><path d="m384.5 113.883c22.045 0 39.979-17.935 39.979-39.979s-17.935-39.98-39.979-39.98-39.979 17.935-39.979 39.98 17.934 39.979 39.979 39.979zm0-64.96c13.773 0 24.979 11.206 24.979 24.98s-11.206 24.98-24.979 24.98-24.979-11.206-24.979-24.979 11.206-24.981 24.979-24.981z"/><path d="m489.5 467h-7.5v-93.798c2.399.849 4.929 1.297 7.48 1.297h.004c8.062 0 15.552-4.345 19.549-11.339 6.154-10.771 2.398-24.542-8.373-30.697l-104.997-59.998c-6.886-3.935-15.441-3.935-22.325 0l-3.838 2.193v-4.267c5.633-.739 10-5.559 10-11.391v-22c0-6.341-5.159-11.5-11.5-11.5h-72c-6.341 0-11.5 5.159-11.5 11.5v22c0 5.832 4.367 10.652 10 11.391v47.124l-26.16 14.948c-10.771 6.155-14.527 19.926-8.373 30.698 2.982 5.218 7.818 8.963 13.616 10.544 1.969.537 3.969.803 5.955.803 2.54 0 5.056-.443 7.462-1.299v93.791h-62v-93.798c2.399.849 4.929 1.297 7.48 1.297h.004c8.062 0 15.552-4.345 19.549-11.339 6.154-10.771 2.398-24.542-8.373-30.697l-31.994-18.282c-3.595-2.054-8.178-.806-10.232 2.791-2.056 3.597-.806 8.178 2.791 10.233l31.994 18.282c3.59 2.052 4.842 6.642 2.791 10.232-1.333 2.333-3.833 3.781-6.527 3.781-1.308 0-2.555-.333-3.706-.991l-97.556-55.745c-2.305-1.317-5.137-1.317-7.441 0l-97.558 55.746c-1.737.994-3.758 1.252-5.692.724-1.933-.527-3.545-1.776-4.539-3.515-2.051-3.59-.799-8.181 2.791-10.232l104.999-59.998c2.293-1.312 5.146-1.312 7.44 0l42.477 24.272c3.598 2.056 8.179.806 10.232-2.791 2.055-3.597.806-8.178-2.791-10.233l-42.476-24.272c-6.887-3.935-15.442-3.935-22.325 0l-3.838 2.193v-4.267c5.633-.739 10-5.559 10-11.391v-22c0-6.341-5.159-11.5-11.5-11.5h-72c-6.341 0-11.5 5.159-11.5 11.5v22c0 5.832 4.367 10.652 10 11.391v47.124l-26.16 14.948c-10.771 6.155-14.527 19.926-8.373 30.698 2.982 5.218 7.818 8.963 13.616 10.544 1.969.537 3.969.803 5.955.803 2.54 0 5.056-.443 7.462-1.299v93.791h-7.5c-12.406 0-22.5 10.093-22.5 22.5s10.094 22.5 22.5 22.5h467c12.406 0 22.5-10.093 22.5-22.5s-10.094-22.5-22.5-22.5zm-447-226.5h65v15h-65zm10 30h45v12.729l-45 25.714zm247-30h65v15h-65zm10 30h45v12.729l-45 25.714zm-31.971 88.733c-1.933-.527-3.545-1.776-4.539-3.515-2.051-3.59-.799-8.181 2.791-10.232l104.999-59.998c1.146-.656 2.434-.983 3.72-.983s2.573.328 3.721.983l104.998 59.998c3.59 2.052 4.842 6.642 2.791 10.232-1.333 2.333-3.833 3.781-6.527 3.781-1.308 0-2.555-.333-3.706-.991l-97.556-55.745c-2.305-1.317-5.137-1.317-7.441 0l-97.558 55.746c-1.738.994-3.757 1.252-5.693.724zm24.471 5.822 82.5-47.141 82.5 47.142v101.944h-31.885v-12.539c0-4.142-3.357-7.5-7.5-7.5s-7.5 3.358-7.5 7.5v12.539h-71v-85h71v38c0 4.142 3.357 7.5 7.5 7.5s7.5-3.358 7.5-7.5v-41.5c0-6.341-5.159-11.5-11.5-11.5h-78c-6.341 0-11.5 5.159-11.5 11.5v88.5h-32.115zm-257 0 82.5-47.141 82.5 47.142v101.944h-31.885v-88.5c0-6.341-5.159-11.5-11.5-11.5h-78c-6.341 0-11.5 5.159-11.5 11.5v88.5h-32.115zm118.115 101.945h-71v-85h71zm326.385 30h-467c-4.136 0-7.5-3.364-7.5-7.5s3.364-7.5 7.5-7.5h467c4.136 0 7.5 3.364 7.5 7.5s-3.364 7.5-7.5 7.5z"/></g></g></svg>