<svg height="511pt" viewBox="1 -34 511.9996 511" width="511pt" xmlns="http://www.w3.org/2000/svg"><path d="m133.957031 235.625h50.222657c8.855468 0 16.058593-7.203125 16.058593-16.058594v-103.441406c0-19.484375-15.855469-35.339844-35.339843-35.339844h-11.65625c-19.488282 0-35.339844 15.855469-35.339844 35.339844v103.441406c0 8.855469 7.199218 16.058594 16.054687 16.058594zm13.945313-30.003906v-50.46875h22.335937v50.46875zm5.339844-94.835938h11.65625c2.941406 0 5.339843 2.398438 5.339843 5.339844v9.023438h-22.335937v-9.023438c0-2.941406 2.394531-5.339844 5.339844-5.339844zm0 0"/><path d="m346.386719 80.785156c-19.484375 0-35.339844 15.855469-35.339844 35.339844v103.441406c0 8.855469 7.203125 16.058594 16.058594 16.058594h50.222656c8.855469 0 16.058594-7.203125 16.058594-16.058594v-103.441406c0-19.484375-15.855469-35.339844-35.339844-35.339844zm-5.339844 124.835938v-50.46875h22.339844v50.46875zm22.339844-89.496094v9.023438h-22.339844v-9.023438c0-2.941406 2.398437-5.339844 5.339844-5.339844h11.660156c2.945313 0 5.339844 2.398438 5.339844 5.339844zm0 0"/><path d="m497 412.496094h-33.210938v-299.847656l24.378907 17.722656c2.664062 1.9375 5.75 2.867187 8.808593 2.867187 4.636719 0 9.210938-2.140625 12.144532-6.179687 4.871094-6.699219 3.386718-16.082032-3.3125-20.953125l-138.464844-100.671875c-9.050781-6.578125-21.207031-6.578125-30.253906 0l-81.445313 59.214844-81.449219-59.214844c-9.050781-6.578125-21.207031-6.578125-30.25 0l-137.765624 100.160156c-6.699219 4.871094-8.183594 14.253906-3.3125 20.953125 4.871093 6.699219 14.253906 8.1875 20.953124 3.3125l23.675782-17.210937v299.847656h-32.496094c-8.285156 0-15 6.71875-15 15.003906s6.714844 15 15 15h482c8.285156 0 15-6.714844 15-15s-6.714844-15.003906-15-15.003906zm-326.761719 0h-22.335937v-121.722656c0-2.964844 2.410156-5.378907 5.375-5.378907h11.585937c2.960938 0 5.375 2.414063 5.375 5.378907zm70.40625 0h-40.40625v-121.722656c0-19.507813-15.871093-35.382813-35.375-35.382813h-11.585937c-19.507813 0-35.375 15.875-35.375 35.382813v121.722656h-40.40625v-321.660156l81.574218-59.304688 81.574219 59.304688zm122.742188 0h-22.339844v-121.722656c0-2.964844 2.414063-5.378907 5.378906-5.378907h11.582031c2.964844 0 5.378907 2.414063 5.378907 5.378907zm70.402343 0h-40.402343v-121.722656c0-19.507813-15.871094-35.382813-35.378907-35.382813h-11.582031c-19.507812 0-35.378906 15.875-35.378906 35.382813v121.722656h-40.402344v-321.660156l15.148438-11.015626 66.425781-48.289062 81.574219 59.304688v321.660156zm0 0"/></svg>