<svg id="Layer_1" enable-background="new 0 0 512 512" height="512" viewBox="0 0 512 512" width="512" xmlns="http://www.w3.org/2000/svg"><g><g><path d="m287.249 96.81h16.604v111.58c0 6.341 5.159 11.5 11.5 11.5h65.998c6.341 0 11.5-5.159 11.5-11.5v-111.58h16.604c5.366 0 10.076-3.036 12.294-7.922 2.217-4.887 1.398-10.431-2.136-14.469l-21.103-24.11c-2.728-3.117-7.467-3.431-10.583-.704-3.117 2.728-3.432 7.466-.704 10.583l18.925 21.623h-18.797c-5.238 0-9.5 4.262-9.5 9.5v45.19h-58.998v-45.191c0-5.238-4.262-9.5-9.5-9.5h-18.797l57.796-66.032 15.822 18.077c2.728 3.117 7.466 3.431 10.583.704 3.117-2.728 3.432-7.466.704-10.583l-16.951-19.367c-2.563-2.929-6.266-4.609-10.158-4.609s-7.595 1.68-10.158 4.608l-61.103 69.811c-3.534 4.038-4.352 9.582-2.136 14.469 2.218 4.886 6.928 7.922 12.294 7.922zm31.604 108.08v-23.39h58.998v23.39zm58.998-53.39v15h-58.998v-15z"/><path d="m406.121 193.561c1.906 4.202 5.957 6.812 10.571 6.812h9.005v74.039c0 5.646 4.593 10.239 10.239 10.239h45.191c5.646 0 10.239-4.593 10.239-10.239v-74.039h9.005c4.614 0 8.665-2.61 10.571-6.813s1.203-8.969-1.836-12.441l-41.84-47.801c-2.204-2.519-5.388-3.963-8.735-3.963s-6.531 1.445-8.735 3.963l-41.84 47.802c-3.038 3.471-3.742 8.238-1.835 12.441zm70.245 43.119h-35.67v-13h35.67zm-35.67 32.97v-17.97h35.67v17.971h-35.67zm17.835-123.538 34.363 39.26h-7.659c-4.89 0-8.869 3.979-8.869 8.87v14.438h-35.67v-14.438c0-4.891-3.978-8.87-8.869-8.87h-7.659z"/><path d="m489.487 467h-42.96c-4.142 0-7.5 3.358-7.5 7.5s3.358 7.5 7.5 7.5h42.96c4.136 0 7.5 3.364 7.5 7.5s-3.364 7.5-7.5 7.5h-466.988c-4.136 0-7.5-3.364-7.5-7.5s3.364-7.5 7.5-7.5h388.951c4.142 0 7.5-3.358 7.5-7.5s-3.358-7.5-7.5-7.5h-41.96v-120.766l.802.615c3.965 3.042 8.698 4.651 13.687 4.651 7.056-.001 13.566-3.209 17.859-8.803 7.553-9.842 5.691-23.994-4.151-31.548l-171.995-132c-8.065-6.188-19.33-6.187-27.395.001l-49.8 38.22v-13.979c5.633-.739 10-5.559 10-11.391v-22c0-6.341-5.159-11.5-11.5-11.5h-71.999c-6.341 0-11.5 5.159-11.5 11.5v22c0 5.832 4.366 10.652 10 11.391v71.537l-47.197 36.221c-9.842 7.554-11.704 21.706-4.151 31.548 7.553 9.841 21.705 11.703 31.547 4.151l.801-.615v120.767h-31.999c-12.406 0-22.499 10.093-22.499 22.5s10.093 22.5 22.499 22.5h466.988c12.406 0 22.499-10.093 22.499-22.5s-10.092-22.5-22.499-22.5zm-376.99 0v-101.923h74.998v101.923zm-33.999-293.5h64.998v15h-64.998zm10 30h44.999v25.381l-44.999 34.535zm-19 131.222 27.437-21.057c3.286-2.521 3.906-7.23 1.384-10.516-2.521-3.286-7.231-3.904-10.515-1.383l-43.238 33.183c-3.281 2.517-7.998 1.896-10.516-1.383-2.518-3.281-1.896-7.999 1.384-10.517l171.994-131.999c2.688-2.062 6.444-2.063 9.133 0l171.994 132c3.281 2.518 3.902 7.236 1.384 10.516-1.431 1.865-3.604 2.935-5.961 2.935-1.658 0-3.233-.537-4.555-1.551l-162.863-124.992c-2.692-2.067-6.439-2.067-9.132 0l-91.864 70.502c-3.286 2.521-3.905 7.23-1.383 10.516 2.521 3.287 7.23 3.905 10.515 1.384l87.298-66.998 142.496 109.36v132.278h-151.995v-109.423c0-4.142-3.358-7.5-7.5-7.5h-89.998c-4.142 0-7.5 3.358-7.5 7.5v109.423h-27.999z"/><path d="m169.996 413.5c-4.142 0-7.5 3.358-7.5 7.5v8c0 4.142 3.358 7.5 7.5 7.5s7.5-3.358 7.5-7.5v-8c-.001-4.142-3.358-7.5-7.5-7.5z"/><path d="m211.995 334.5c23.434 0 42.499-19.065 42.499-42.5s-19.065-42.5-42.499-42.5-42.499 19.065-42.499 42.5 19.065 42.5 42.499 42.5zm-26.32-34.539h18.82v18.49c-8.989-2.552-16.116-9.566-18.82-18.49zm33.819 18.491v-18.49h18.82c-2.704 8.923-9.831 15.937-18.82 18.49zm19.083-33.491h-19.083v-19.413c9.296 2.64 16.602 10.052 19.083 19.413zm-34.082-19.413v19.413h-19.083c2.481-9.361 9.787-16.773 19.083-19.413z"/><path d="m223.494 357.577v60c0 4.142 3.358 7.5 7.5 7.5h87.998c4.142 0 7.5-3.358 7.5-7.5v-60c0-4.142-3.358-7.5-7.5-7.5h-87.998c-4.142 0-7.5 3.358-7.5 7.5zm87.998 52.5h-28.999v-45h28.999zm-72.998-45h28.999v45h-28.999z"/></g></g></svg>